<?xml version="1.0" encoding="utf-8"?>
<!-- Generator: Adobe Illustrator 16.0.0, SVG Export Plug-In . SVG Version: 6.00 Build 0)  -->
<!DOCTYPE svg PUBLIC "-//W3C//DTD SVG 1.1//EN" "http://www.w3.org/Graphics/SVG/1.1/DTD/svg11.dtd">
<svg xmlns="http://www.w3.org/2000/svg" xmlns:xlink="http://www.w3.org/1999/xlink" version="1.1" id="Layer_1" x="0px" y="0px" width="512" height="512" viewBox="0 0 512 512" enable-background="new 0 0 512 512" xml:space="preserve">
<g id="mail_virus">
	<g id="letter">
		<path fill="#FFCE54" d="M181.203,108.723c-11.656-1.281-29.188,2.969-38.953,9.469l-124.5,83C7.984,207.691,0,222.645,0,234.363    v256.008c0,11.75,9.609,21.344,21.328,21.344h469.344c11.719,0,21.328-9.594,21.328-21.344V234.363    c0-11.719-7.984-26.672-17.75-33.172l-85.906-57.25c-9.766-6.531-27.297-12.906-38.953-14.219L181.203,108.723z"/>
		<path fill="#F6BB42" d="M369.406,129.723l-94.109-10.5l-94.094-10.5c-11.656-1.281-29.172,2.969-38.938,9.469L80,159.691    l-62.25,41.5c-5.938,3.969-11.203,11.047-14.438,18.609l252.297,165.914l252.875-166.383c-3.25-7.406-8.422-14.266-14.234-18.141    l-42.953-28.625l-42.969-28.656C398.562,137.41,381.062,131.035,369.406,129.723z"/>
		<g>
			<path fill="#434A54" d="M96,426.371H53.328c-5.875,0-10.656-4.75-10.656-10.656c0-5.875,4.781-10.656,10.656-10.656H96     c5.891,0,10.672,4.781,10.672,10.656C106.672,421.621,101.891,426.371,96,426.371z"/>
		</g>
		<g>
			<path fill="#434A54" d="M181.328,469.059h-128c-5.875,0-10.656-4.781-10.656-10.688c0-5.875,4.781-10.656,10.656-10.656h128     c5.906,0,10.672,4.781,10.672,10.656C192,464.277,187.234,469.059,181.328,469.059z"/>
		</g>
		<g>
			<polygon fill="#E6E9ED" points="447.984,259.113 255.516,385.715 63.984,259.707 63.984,0.285 362.672,0.285 447.984,85.629         "/>
		</g>
		<g>
			<polygon fill="#CCD1D9" points="362.672,85.629 447.984,85.629 362.672,0.285    "/>
		</g>
		<path fill="#DA4453" d="M279.359,375.059c-5.844-6.562-14.359-10.688-23.844-10.688c-9.469,0-17.969,4.125-23.844,10.688    l-8.156,10.656v10.656c0,17.688,14.344,32,32,32c17.688,0,32-14.312,32-32v-10.656L279.359,375.059z"/>
		<g>
			<path fill="#ED5564" d="M287.516,385.715c0,17.688-14.312,32-32,32c-17.656,0-32-14.312-32-32c0-17.656,14.344-32,32-32     C273.203,353.715,287.516,368.059,287.516,385.715z"/>
		</g>
	</g>
	<g>
		<g>
			<path fill="#434A54" d="M373.812,201.895h-0.016H139.156h-0.016c-5.891,0-10.656,4.766-10.672,10.672     c0.016,5.875,4.781,10.656,10.672,10.656l0,0h234.672l0,0l0,0c5.891,0,10.672-4.781,10.672-10.672     S379.703,201.895,373.812,201.895z"/>
			<path fill="#434A54" d="M193.984,68.707l32.188,53.766l18.312-10.953l-32.188-53.781l-0.016,0.016     c-1.859-3.109-5.25-5.203-9.141-5.203c-5.891,0-10.656,4.781-10.656,10.672c0,2,0.562,3.875,1.516,5.469L193.984,68.707z"/>
			<path fill="#434A54" d="M319.062,68.707l-0.016-0.016c0.969-1.594,1.531-3.469,1.531-5.469c0-5.891-4.781-10.672-10.672-10.672     c-3.891,0-7.281,2.094-9.141,5.203l-0.016-0.016l-32.188,53.781l18.297,10.953L319.062,68.707z"/>
			<path fill="#434A54" d="M139.234,139.441c0.188,1.328,5.125,32.375,37.312,44.438l7.484-19.969     c-20.172-7.578-23.578-26.844-23.703-27.656l0.016,0.078h-0.016c-0.75-5.156-5.188-9.109-10.547-9.109     c-5.891,0-10.656,4.781-10.656,10.672c0,0.531,0.047,1.047,0.125,1.547H139.234z"/>
			<path fill="#434A54" d="M373.703,139.441h-0.016c0.078-0.5,0.125-1.016,0.125-1.547c0-5.891-4.781-10.672-10.672-10.672     c-5.359,0-9.781,3.953-10.531,9.109h-0.016c-0.031,0.203-3.156,19.875-23.703,27.578l7.5,19.969     C368.562,171.816,373.5,140.77,373.703,139.441z"/>
			<path fill="#434A54" d="M363.031,296.34c-0.203-1.312-5.125-32.367-37.312-44.445l-7.484,19.984     c20.172,7.555,23.562,26.836,23.703,27.648l-0.016-0.094h0.016c0.75,5.156,5.172,9.125,10.547,9.125     c5.875,0,10.656-4.781,10.656-10.656c0-0.531-0.047-1.062-0.125-1.562H363.031z"/>
			<path fill="#434A54" d="M149.922,296.34h0.016c-0.078,0.5-0.125,1.031-0.125,1.562c0,5.875,4.766,10.656,10.656,10.656     c5.359,0,9.797-3.969,10.547-9.125l0.016,0.031c0.031-0.219,3.156-19.875,23.703-27.586l-7.5-19.969     C155.047,263.973,150.125,295.027,149.922,296.34z"/>
		</g>
		<g>
			<path fill="#ED5564" d="M341.75,191.223c0,64.797-24.359,117.336-85.281,117.336c-60.906,0-85.266-52.539-85.266-117.336     s31.703-96,85.281-96C310.047,95.223,341.75,126.426,341.75,191.223z"/>
		</g>
		<path fill="#DA4453" d="M335.844,148.551H177.109c-2.094,6.516-3.625,13.625-4.625,21.344h73.328v138.102    c3.422,0.375,6.969,0.562,10.656,0.562c3.703,0,7.25-0.188,10.672-0.562V169.895h73.328    C339.484,162.176,337.938,155.051,335.844,148.551z"/>
	</g>
</g>
</svg>
